<?xml version="1.0" encoding="utf-8"?>
<!-- Generator: Adobe Illustrator 19.2.1, SVG Export Plug-In . SVG Version: 6.00 Build 0)  -->
<svg version="1.1" id="Layer_1" xmlns="http://www.w3.org/2000/svg" xmlns:xlink="http://www.w3.org/1999/xlink" x="0px" y="0px"
	 viewBox="0 0 180 40" style="enable-background:new 0 0 180 40;" xml:space="preserve">
<style type="text/css">
	.st0{clip-path:url(#SVGID_2_);fill:url(#SVGID_3_);}
	.st1{clip-path:url(#SVGID_5_);fill:url(#SVGID_6_);}
	.st2{clip-path:url(#SVGID_8_);fill:url(#SVGID_9_);}
	.st3{clip-path:url(#SVGID_11_);fill:url(#SVGID_12_);}
	.st4{clip-path:url(#SVGID_14_);fill:url(#SVGID_15_);}
	.st5{clip-path:url(#SVGID_17_);fill:url(#SVGID_18_);}
	.st6{clip-path:url(#SVGID_20_);fill:url(#SVGID_21_);}
	.st7{clip-path:url(#SVGID_23_);fill:url(#SVGID_24_);}
	.st8{clip-path:url(#SVGID_26_);fill:url(#SVGID_27_);}
	.st9{clip-path:url(#SVGID_29_);fill:url(#SVGID_30_);}
</style>
<g>
	<g>
		<defs>
			<path id="SVGID_1_" d="M26.3,21.6c0-3.3,2.6-5.9,5.9-5.9c3.3,0,5.9,2.6,5.9,5.9c0,3.3-2.6,5.9-5.9,5.9c0,0,0,0,0,0
				C28.9,27.5,26.3,24.8,26.3,21.6 M32.2,6.3C32.2,6.3,32.2,6.3,32.2,6.3c-8.4,0-15.3,6.8-15.3,15.3c0,8.4,6.8,15.3,15.3,15.3
				c8.4,0,15.3-6.8,15.3-15.3C47.5,13.1,40.6,6.3,32.2,6.3C32.2,6.3,32.2,6.3,32.2,6.3"/>
		</defs>
		<clipPath id="SVGID_2_">
			<use xlink:href="#SVGID_1_"  style="overflow:visible;"/>
		</clipPath>
		
			<linearGradient id="SVGID_3_" gradientUnits="userSpaceOnUse" x1="-330.399" y1="315.0127" x2="-330.0148" y2="315.0127" gradientTransform="matrix(-24.2203 -52.0973 -52.0973 24.2203 8457.5684 -24785.7812)">
			<stop  offset="0" style="stop-color:#F4752B"/>
			<stop  offset="0.9096" style="stop-color:#F78F2A"/>
			<stop  offset="1" style="stop-color:#F78F2A"/>
		</linearGradient>
		<polygon class="st0" points="22.4,48.5 5.3,11.7 42.1,-5.4 59.2,31.4 		"/>
	</g>
	<g>
		<defs>
			<path id="SVGID_4_" d="M26.3,21.6c0-3.3,2.6-5.9,5.9-5.9c3.3,0,5.9,2.6,5.9,5.9c0,3.3-2.6,5.9-5.9,5.9c0,0,0,0,0,0
				C28.9,27.5,26.3,24.8,26.3,21.6 M32.2,6.3c-8.4,0-15.3,6.8-15.3,15.3c0,2.9,0.8,5.6,2.2,7.9c0,0,5.5,5.4,15,3
				c9.1-2.2,14.4-12.6,10.9-19.2C42.3,9.1,37.6,6.3,32.2,6.3C32.2,6.3,32.2,6.3,32.2,6.3"/>
		</defs>
		<clipPath id="SVGID_5_">
			<use xlink:href="#SVGID_4_"  style="overflow:visible;"/>
		</clipPath>
		
			<linearGradient id="SVGID_6_" gradientUnits="userSpaceOnUse" x1="-331.2174" y1="312.717" x2="-330.8333" y2="312.717" gradientTransform="matrix(-9.3363 -28.9396 -28.9396 9.3363 5992.3931 -12477.7998)">
			<stop  offset="0" style="stop-color:#F4752B"/>
			<stop  offset="0.9096" style="stop-color:#F78F2A"/>
			<stop  offset="1" style="stop-color:#F78F2A"/>
		</linearGradient>
		<polygon class="st1" points="19.9,44 8.6,9 45.5,-2.9 56.8,32.1 		"/>
	</g>
	<g>
		<defs>
			<path id="SVGID_7_" d="M31.5,3C12.5,3,0,10.5,0,10.5S8,25,22.1,18.3c19.2-9.1,22-9.7,31.7-9.7c5.5,0,8.9,1.4,8.9,1.4
				C51.3,4.7,40.6,3,31.5,3C31.5,3,31.5,3,31.5,3"/>
		</defs>
		<clipPath id="SVGID_8_">
			<use xlink:href="#SVGID_7_"  style="overflow:visible;"/>
		</clipPath>
		
			<linearGradient id="SVGID_9_" gradientUnits="userSpaceOnUse" x1="-330.2263" y1="317.8757" x2="-329.8422" y2="317.8757" gradientTransform="matrix(30.7082 79.3968 79.3968 -30.7082 -15071.9785 35979.582)">
			<stop  offset="0" style="stop-color:#00B0F0"/>
			<stop  offset="0.2423" style="stop-color:#0088C7"/>
			<stop  offset="0.5868" style="stop-color:#005592"/>
			<stop  offset="0.8456" style="stop-color:#003570"/>
			<stop  offset="0.9871" style="stop-color:#002964"/>
			<stop  offset="1" style="stop-color:#002964"/>
		</linearGradient>
		<polygon class="st2" points="54.6,-18.1 70.1,22.1 8.2,46.1 -7.4,5.9 		"/>
	</g>
	<g>
		<defs>
			<path id="SVGID_10_" d="M62.8,9.9c0,0-0.3-0.1-0.8-0.3C62.2,9.7,62.5,9.8,62.8,9.9 M39.5,5.2c-6.6,0-11.7,1.6-15.8,4.4
				c-6.6,4.6-6.6,10.3-6.6,10.3c1.6-0.3,3.3-0.8,5-1.6c19.2-9.1,22-9.7,31.7-9.7c3.9,0,6.7,0.7,8.1,1.1C53,6.6,45.6,5.2,39.5,5.2
				C39.5,5.2,39.5,5.2,39.5,5.2"/>
		</defs>
		<clipPath id="SVGID_11_">
			<use xlink:href="#SVGID_10_"  style="overflow:visible;"/>
		</clipPath>
		
			<linearGradient id="SVGID_12_" gradientUnits="userSpaceOnUse" x1="-330.0844" y1="318.1461" x2="-329.7003" y2="318.1461" gradientTransform="matrix(20.3825 52.6995 52.6995 -20.3825 -10001.7617 23883.3945)">
			<stop  offset="0" style="stop-color:#00B0F0"/>
			<stop  offset="0.2423" style="stop-color:#0088C7"/>
			<stop  offset="0.5868" style="stop-color:#005592"/>
			<stop  offset="0.8456" style="stop-color:#003570"/>
			<stop  offset="0.9871" style="stop-color:#002964"/>
			<stop  offset="1" style="stop-color:#002964"/>
		</linearGradient>
		<polygon class="st3" points="56.8,-10.1 67.7,18 23,35.3 12.2,7.2 		"/>
	</g>
	<g>
		<defs>
			<path id="SVGID_13_" d="M58.4,18.6l2.9,0c2.2,0,3.5,1,3.5,2.9v0.1c0,1.7-1.3,2.9-3.5,2.9l-2.9,0L58.4,18.6z M61.7,13.5
				C61.7,13.5,61.7,13.5,61.7,13.5l-9.4,0l0,22l6.1,0l0-6.3l3,0c5.5,0,9.4-2.7,9.4-7.9v-0.1C70.8,16.3,67.2,13.5,61.7,13.5
				C61.7,13.5,61.7,13.5,61.7,13.5"/>
		</defs>
		<clipPath id="SVGID_14_">
			<use xlink:href="#SVGID_13_"  style="overflow:visible;"/>
		</clipPath>
		
			<linearGradient id="SVGID_15_" gradientUnits="userSpaceOnUse" x1="-330.7038" y1="317.6094" x2="-330.3197" y2="317.6094" gradientTransform="matrix(364.788 -0.2554 -0.2554 -364.788 120761.9531 115800.1016)">
			<stop  offset="0" style="stop-color:#00B0F0"/>
			<stop  offset="0.2423" style="stop-color:#0088C7"/>
			<stop  offset="0.5868" style="stop-color:#005592"/>
			<stop  offset="0.8456" style="stop-color:#003570"/>
			<stop  offset="0.9871" style="stop-color:#002964"/>
			<stop  offset="1" style="stop-color:#002964"/>
		</linearGradient>
		<rect x="52.3" y="13.5" class="st4" width="18.6" height="22"/>
	</g>
	<g>
		<defs>
			<path id="SVGID_16_" d="M78.9,18.7l4,0c2,0,3.3,0.9,3.3,2.6v0.1c0,1.6-1.2,2.6-3.3,2.6l-4,0L78.9,18.7z M83.1,13.4l-10.4,0l0,22
				l6.1,0l0-6.7l2.7,0l4.4,6.6l7,0l-5.2-7.7c2.7-1.2,4.5-3.4,4.5-6.7v-0.1c0-2.2-0.7-3.9-1.9-5.1C88.8,14.3,86.5,13.4,83.1,13.4
				C83.2,13.4,83.2,13.4,83.1,13.4"/>
		</defs>
		<clipPath id="SVGID_17_">
			<use xlink:href="#SVGID_16_"  style="overflow:visible;"/>
		</clipPath>
		
			<linearGradient id="SVGID_18_" gradientUnits="userSpaceOnUse" x1="-330.7038" y1="317.6094" x2="-330.3197" y2="317.6094" gradientTransform="matrix(364.7842 -0.2553 -0.2553 -364.7842 120760.7031 115798.9141)">
			<stop  offset="0" style="stop-color:#00B0F0"/>
			<stop  offset="0.2423" style="stop-color:#0088C7"/>
			<stop  offset="0.5868" style="stop-color:#005592"/>
			<stop  offset="0.8456" style="stop-color:#003570"/>
			<stop  offset="0.9871" style="stop-color:#002964"/>
			<stop  offset="1" style="stop-color:#002964"/>
		</linearGradient>
		<rect x="72.8" y="13.4" class="st5" width="20.2" height="22"/>
	</g>
	<g>
		<defs>
			<path id="SVGID_19_" d="M99.6,24.4L99.6,24.4c0-3.2,2.2-5.9,5.5-5.9c3.4,0,5.6,2.8,5.7,5.9v0.1c0,3.2-2.2,5.9-5.6,5.9
				c0,0,0,0,0,0C101.9,30.3,99.6,27.6,99.6,24.4 M105.2,13C105.2,13,105.2,13,105.2,13c-6.8,0-11.9,5.1-11.9,11.4v0.1
				c0,6.3,5,11.4,11.8,11.3c6.8,0,11.9-5.1,11.8-11.4v-0.1C117,18,112,13,105.2,13C105.2,13,105.2,13,105.2,13"/>
		</defs>
		<clipPath id="SVGID_20_">
			<use xlink:href="#SVGID_19_"  style="overflow:visible;"/>
		</clipPath>
		
			<linearGradient id="SVGID_21_" gradientUnits="userSpaceOnUse" x1="-330.7038" y1="317.6063" x2="-330.3197" y2="317.6063" gradientTransform="matrix(364.7556 -0.2553 -0.2553 -364.7556 120751.2344 115788.6875)">
			<stop  offset="0" style="stop-color:#00B0F0"/>
			<stop  offset="0.2423" style="stop-color:#0088C7"/>
			<stop  offset="0.5868" style="stop-color:#005592"/>
			<stop  offset="0.8456" style="stop-color:#003570"/>
			<stop  offset="0.9871" style="stop-color:#002964"/>
			<stop  offset="1" style="stop-color:#002964"/>
		</linearGradient>
		<rect x="93.3" y="13" class="st6" width="23.7" height="22.9"/>
	</g>
	<g>
		<defs>
			<polygon id="SVGID_22_" points="133.6,13.4 133.6,25 124.6,13.4 118.9,13.4 118.9,35.4 124.9,35.4 124.9,23.3 134.3,35.4 
				139.6,35.4 139.6,13.4 			"/>
		</defs>
		<clipPath id="SVGID_23_">
			<use xlink:href="#SVGID_22_"  style="overflow:visible;"/>
		</clipPath>
		
			<linearGradient id="SVGID_24_" gradientUnits="userSpaceOnUse" x1="-330.7038" y1="317.6094" x2="-330.3197" y2="317.6094" gradientTransform="matrix(364.7741 -0.2553 -0.2553 -364.7741 120757.3438 115795.6875)">
			<stop  offset="0" style="stop-color:#00B0F0"/>
			<stop  offset="0.2423" style="stop-color:#0088C7"/>
			<stop  offset="0.5868" style="stop-color:#005592"/>
			<stop  offset="0.8456" style="stop-color:#003570"/>
			<stop  offset="0.9871" style="stop-color:#002964"/>
			<stop  offset="1" style="stop-color:#002964"/>
		</linearGradient>
		<rect x="118.9" y="13.4" class="st7" width="20.8" height="22"/>
	</g>
	<g>
		<defs>
			<polygon id="SVGID_25_" points="142.9,13.4 142.9,35.4 160.7,35.4 160.7,30.2 148.9,30.2 148.9,26.7 159.5,26.7 159.5,21.9 
				148.9,21.9 148.9,18.6 160.5,18.6 160.5,13.4 			"/>
		</defs>
		<clipPath id="SVGID_26_">
			<use xlink:href="#SVGID_25_"  style="overflow:visible;"/>
		</clipPath>
		
			<linearGradient id="SVGID_27_" gradientUnits="userSpaceOnUse" x1="-330.7038" y1="317.6094" x2="-330.3197" y2="317.6094" gradientTransform="matrix(364.7669 -0.2553 -0.2553 -364.7669 120754.9609 115793.4062)">
			<stop  offset="0" style="stop-color:#00B0F0"/>
			<stop  offset="0.2423" style="stop-color:#0088C7"/>
			<stop  offset="0.5868" style="stop-color:#005592"/>
			<stop  offset="0.8456" style="stop-color:#003570"/>
			<stop  offset="0.9871" style="stop-color:#002964"/>
			<stop  offset="1" style="stop-color:#002964"/>
		</linearGradient>
		<rect x="142.9" y="13.4" class="st8" width="17.8" height="22"/>
	</g>
	<g>
		<defs>
			<polygon id="SVGID_28_" points="162,13.4 162,18.7 167.9,18.7 167.9,35.3 174,35.3 174,18.7 180,18.7 180,13.4 			"/>
		</defs>
		<clipPath id="SVGID_29_">
			<use xlink:href="#SVGID_28_"  style="overflow:visible;"/>
		</clipPath>
		
			<linearGradient id="SVGID_30_" gradientUnits="userSpaceOnUse" x1="-330.7267" y1="317.6074" x2="-330.3426" y2="317.6074" gradientTransform="matrix(340.3658 -0.2383 -0.2383 -340.3658 112696.3594 108048.3359)">
			<stop  offset="0" style="stop-color:#00B0F0"/>
			<stop  offset="0.2423" style="stop-color:#0088C7"/>
			<stop  offset="0.5868" style="stop-color:#005592"/>
			<stop  offset="0.8456" style="stop-color:#003570"/>
			<stop  offset="0.9871" style="stop-color:#002964"/>
			<stop  offset="1" style="stop-color:#002964"/>
		</linearGradient>
		<rect x="162" y="13.4" class="st9" width="18" height="22"/>
	</g>
</g>
</svg>
